<?xml version="1.0" encoding="UTF-8" standalone="no"?>
<svg
   xmlns:dc="http://purl.org/dc/elements/1.1/"
   xmlns:cc="http://creativecommons.org/ns#"
   xmlns:rdf="http://www.w3.org/1999/02/22-rdf-syntax-ns#"
   xmlns:svg="http://www.w3.org/2000/svg"
   xmlns="http://www.w3.org/2000/svg"
   xmlns:sodipodi="http://sodipodi.sourceforge.net/DTD/sodipodi-0.dtd"
   xmlns:inkscape="http://www.inkscape.org/namespaces/inkscape"
   width="120px"
   height="72px"
   viewBox="0 0 120 72"
   version="1.1"
   id="svg13"
   sodipodi:docname="first_run_welcome_cura.svg"
   inkscape:version="0.92.4 (5da689c313, 2019-01-14)">
  <metadata
     id="metadata19">
    <rdf:RDF>
      <cc:Work
         rdf:about="">
        <dc:format>image/svg+xml</dc:format>
        <dc:type
           rdf:resource="http://purl.org/dc/dcmitype/StillImage" />
      </cc:Work>
    </rdf:RDF>
  </metadata>
  <defs
     id="defs17" />
  <sodipodi:namedview
     pagecolor="#ffffff"
     bordercolor="#666666"
     borderopacity="1"
     objecttolerance="10"
     gridtolerance="10"
     guidetolerance="10"
     inkscape:pageopacity="0"
     inkscape:pageshadow="2"
     inkscape:window-width="1200"
     inkscape:window-height="760"
     id="namedview15"
     showgrid="false"
     inkscape:zoom="3.025"
     inkscape:cx="60"
     inkscape:cy="36"
     inkscape:window-x="0"
     inkscape:window-y="0"
     inkscape:window-maximized="0"
     inkscape:current-layer="svg13" />
  <!-- Generator: Sketch 52.6 (67491) - http://www.bohemiancoding.com/sketch -->
  <title
     id="title2">cura</title>
  <desc
     id="desc4">Created with Sketch.</desc>
  <g
     id="Iteration-4"
     stroke="none"
     stroke-width="1"
     fill="#000000"
     fill-rule="nonzero">
    <path
       d="M114.3,63.1 C112.104248,65.5577268 108.994324,67.0042033 105.7,67.1 L14.3,67.1 C11.0056762,67.0042033 7.89575168,65.5577268 5.7,63.1 L114.3,63.1 Z M120,59.1 L0,59.1 L0,59.9 C0,64.5 6.3,71.1 14.3,71.1 L105.7,71.1 C113.7,71.1 120,64.4 120,59.9 L120,59.1 Z"
       id="path6" />
    <path
       d="M106,4.9 L106,59.1 L14,59.1 L14,4.9 L106,4.9 Z M110,0.9 L10,0.9 L10,63.1 L110,63.1 L110,0.9 Z"
       id="path8" />
  </g>
</svg>
