<?xml version="1.0" ?><svg data-name="Layer 1" height="24" id="Layer_1" viewBox="0 0 24 24" width="24" xmlns="http://www.w3.org/2000/svg"><title/><path d="M19.13428,18.07758,18.649,17H14.1684A1.74692,1.74692,0,0,1,12.5,18.25h-1A1.74692,1.74692,0,0,1,9.8316,17H5.79413l-.21625.81689C2.00427,18.98669,2,21,2,21H22S21.99835,19.26233,19.13428,18.07758Z"/><path d="M9.8316,15A1.74692,1.74692,0,0,1,11.5,13.75h1A1.74692,1.74692,0,0,1,14.1684,15h3.58l-.58167-1.29169.59094-.5614a1.79247,1.79247,0,0,0,.27277-2.26959L16,7.72223l1-.94446,3,.94446L21,11.5l.78741-4.46216a1.51124,1.51124,0,0,0-.9212-1.66345l-4.929-1.99506a1.57487,1.57487,0,0,0-1.67224.31488l-3.70325,3.4975A1.79254,1.79254,0,0,0,10,8.49487v2.06067L7.59717,12.06842a1.79273,1.79273,0,0,0-.77777,1.05823L6.32355,15Z"/><rect height="1.5" rx="0.25" ry="0.25" width="1.5" x="11.25" y="15.25"/></svg>